<svg 
 xmlns="http://www.w3.org/2000/svg"
 xmlns:xlink="http://www.w3.org/1999/xlink"
 width="275px" height="289px">
<defs>
<filter filterUnits="userSpaceOnUse" id="Filter_0" x="0.5px" y="0.5px" width="274px" height="288px"  >
    <feOffset in="SourceAlpha" dx="0" dy="18" />
    <feGaussianBlur result="blurOut" stdDeviation="3.162" />
    <feFlood flood-color="rgb(3, 3, 3)" result="floodOut" />
    <feComposite operator="atop" in="floodOut" in2="blurOut" />
    <feComponentTransfer><feFuncA type="linear" slope="0.42"/></feComponentTransfer>
    <feMerge>
    <feMergeNode/>
    <feMergeNode in="SourceGraphic"/>
  </feMerge>
</filter>
<filter id="Filter_1">
    <feOffset in="SourceAlpha" dx="0" dy="1" />
    <feGaussianBlur result="blurOut" stdDeviation="0" />
    <feFlood flood-color="rgb(255, 255, 255)" result="floodOut" />
    <feComposite operator="out" in="floodOut" in2="blurOut" result="compOut" />
    <feComposite operator="in" in="compOut" in2="SourceAlpha" />
    <feComponentTransfer><feFuncA type="linear" slope="1"/></feComponentTransfer>
    <feBlend mode="normal" in2="SourceGraphic" />
</filter>
<linearGradient id="PSgrad_0" x1="0%" x2="0%" y1="0%" y2="100%">
  <stop offset="0%" stop-color="rgb(255,255,255)" stop-opacity="1" />
  <stop offset="19%" stop-color="rgb(255,255,255)" stop-opacity="1" />
  <stop offset="53%" stop-color="rgb(240,240,240)" stop-opacity="1" />
  <stop offset="86%" stop-color="rgb(229,229,229)" stop-opacity="1" />
  <stop offset="100%" stop-color="rgb(217,217,217)" stop-opacity="1" />
</linearGradient>
<filter id="Filter_2">
    <feOffset in="SourceAlpha" dx="0" dy="-4" />
    <feGaussianBlur result="blurOut" stdDeviation="0" />
    <feFlood flood-color="rgb(255, 255, 255)" result="floodOut" />
    <feComposite operator="out" in="floodOut" in2="blurOut" result="compOut" />
    <feComposite operator="in" in="compOut" in2="SourceAlpha" />
    <feComponentTransfer><feFuncA type="linear" slope="0.3"/></feComponentTransfer>
    <feBlend mode="normal" in2="SourceGraphic" />
</filter>
<radialGradient id="PSgrad_1">
  <stop offset="0%" stop-color="rgb(255,255,255)" stop-opacity="1" />
  <stop offset="38%" stop-color="rgb(255,255,255)" stop-opacity="0.62" />
  <stop offset="100%" stop-color="rgb(245,245,245)" stop-opacity="0" />
</radialGradient>
<filter filterUnits="userSpaceOnUse" id="Filter_3" x="46.5px" y="29.5px" width="56px" height="56px"  >
    <feOffset in="SourceAlpha" dx="0" dy="2" />
    <feGaussianBlur result="blurOut" stdDeviation="0" />
    <feFlood flood-color="rgb(255, 227, 232)" result="floodOut" />
    <feComposite operator="atop" in="floodOut" in2="blurOut" />
    <feComponentTransfer><feFuncA type="linear" slope="1"/></feComponentTransfer>
    <feMerge>
    <feMergeNode/>
    <feMergeNode in="SourceGraphic"/>
  </feMerge>
</filter>
<filter id="Filter_4">
    <feOffset in="SourceAlpha" dx="0" dy="1" />
    <feGaussianBlur result="blurOut" stdDeviation="1" />
    <feFlood flood-color="rgb(3, 3, 3)" result="floodOut" />
    <feComposite operator="out" in="floodOut" in2="blurOut" result="compOut" />
    <feComposite operator="in" in="compOut" in2="SourceAlpha" />
    <feComponentTransfer><feFuncA type="linear" slope="0.75"/></feComponentTransfer>
    <feBlend mode="multiply" in2="SourceGraphic" />
</filter>
<linearGradient id="PSgrad_2" x1="0%" x2="96.593%" y1="25.882%" y2="0%">
  <stop offset="0%" stop-color="rgb(255,1,87)" stop-opacity="1" />
  <stop offset="100%" stop-color="rgb(230,17,133)" stop-opacity="1" />
</linearGradient>
<filter id="Filter_5">
    <feOffset in="SourceAlpha" dx="0.977" dy="-2.837" />
    <feGaussianBlur result="blurOut" stdDeviation="1" />
    <feFlood flood-color="rgb(255, 255, 255)" result="floodOut" />
    <feComposite operator="out" in="floodOut" in2="blurOut" result="compOut" />
    <feComposite operator="in" in="compOut" in2="SourceAlpha" />
    <feComponentTransfer><feFuncA type="linear" slope="0.32"/></feComponentTransfer>
    <feBlend mode="normal" in2="SourceGraphic" />
</filter>
<filter id="Filter_6">
    <feOffset in="SourceAlpha" dx="-0.776" dy="2.898" />
    <feGaussianBlur result="blurOut" stdDeviation="1" />
    <feFlood flood-color="rgb(255, 255, 255)" result="floodOut" />
    <feComposite operator="out" in="floodOut" in2="blurOut" result="compOut" />
    <feComposite operator="in" in="compOut" in2="SourceAlpha" />
    <feComponentTransfer><feFuncA type="linear" slope="0.32"/></feComponentTransfer>
    <feBlend mode="normal" in2="SourceGraphic" />
</filter>

</defs>
<g filter="url(#Filter_0)">
<g filter="url(#Filter_1)">
<path fill-rule="evenodd"  fill="rgb(220, 220, 220)"
 d="M137.000,5.500 C207.416,5.500 264.500,62.584 264.500,133.000 C264.500,203.416 207.416,260.500 137.000,260.500 C66.584,260.500 9.500,203.416 9.500,133.000 C9.500,62.584 66.584,5.500 137.000,5.500 Z"/>
</g></g>
<path stroke-width="1px" stroke="rgb(255, 255, 255)" fill="url(#PSgrad_0)"
 d="M137.000,5.500 C207.416,5.500 264.500,62.584 264.500,133.000 C264.500,203.416 207.416,260.500 137.000,260.500 C66.584,260.500 9.500,203.416 9.500,133.000 C9.500,62.584 66.584,5.500 137.000,5.500 Z"/>
<g filter="url(#Filter_2)">
<path fill-rule="evenodd"  fill-opacity="0" fill="rgb(220, 220, 220)"
 d="M137.500,58.000 C179.197,58.000 213.000,91.803 213.000,133.500 C213.000,175.198 179.197,209.000 137.500,209.000 C95.803,209.000 62.000,175.198 62.000,133.500 C62.000,91.803 95.803,58.000 137.500,58.000 Z"/>
</g>
<path stroke-width="1px" stroke="rgb(255, 255, 255)" fill="url(#PSgrad_1)"
 d="M137.500,58.000 C179.197,58.000 213.000,91.803 213.000,133.500 C213.000,175.198 179.197,209.000 137.500,209.000 C95.803,209.000 62.000,175.198 62.000,133.500 C62.000,91.803 95.803,58.000 137.500,58.000 Z"/>
<g filter="url(#Filter_3)">
<g filter="url(#Filter_4)">
<path fill-rule="evenodd"  fill="rgb(220, 220, 220)"
 d="M74.000,46.500 C79.799,46.500 84.500,51.201 84.500,57.000 C84.500,62.799 79.799,67.500 74.000,67.500 C68.201,67.500 63.500,62.799 63.500,57.000 C63.500,51.201 68.201,46.500 74.000,46.500 Z"/>
</g></g>
<path fill="url(#PSgrad_2)"
 d="M74.000,46.500 C79.799,46.500 84.500,51.201 84.500,57.000 C84.500,62.799 79.799,67.500 74.000,67.500 C68.201,67.500 63.500,62.799 63.500,57.000 C63.500,51.201 68.201,46.500 74.000,46.500 Z"/>
<g filter="url(#Filter_5)">
<path fill-rule="evenodd"  fill-opacity="0" fill="rgb(220, 220, 220)"
 d="M72.875,53.900 C75.346,53.900 77.350,55.904 77.350,58.375 C77.350,60.846 75.346,62.850 72.875,62.850 C70.404,62.850 68.400,60.846 68.400,58.375 C68.400,55.904 70.404,53.900 72.875,53.900 Z"/>
</g>
<g filter="url(#Filter_6)">
<path fill-rule="evenodd"  fill-opacity="0" fill="rgb(220, 220, 220)"
 d="M73.875,49.000 C77.948,49.000 81.250,52.302 81.250,56.375 C81.250,60.448 77.948,63.750 73.875,63.750 C69.802,63.750 66.500,60.448 66.500,56.375 C66.500,52.302 69.802,49.000 73.875,49.000 Z"/>
</g>
</svg>